<?xml version="1.0" encoding="UTF-8"?>
<svg xmlns="http://www.w3.org/2000/svg" xmlns:xlink="http://www.w3.org/1999/xlink" width="296pt" height="296pt" viewBox="0 0 296 296" version="1.1">
<g id="surface156330">
<path style=" stroke:none;fill-rule:evenodd;fill:rgb(45.882353%,94.901961%,40.392157%);fill-opacity:1;" d="M 70.613281 66.945312 C 70.613281 62.769531 64.351562 62.769531 64.351562 66.945312 C 64.351562 71.121094 70.613281 71.121094 70.613281 66.945312 "/>
<path style=" stroke:none;fill-rule:evenodd;fill:rgb(45.882353%,94.901961%,40.392157%);fill-opacity:1;" d="M 70.613281 174.664062 C 70.613281 170.488281 64.351562 170.488281 64.351562 174.664062 C 64.351562 178.839844 70.613281 178.839844 70.613281 174.664062 "/>
<path style=" stroke:none;fill-rule:evenodd;fill:rgb(45.882353%,94.901961%,40.392157%);fill-opacity:1;" d="M 232.183594 66.945312 C 232.183594 62.769531 225.917969 62.769531 225.917969 66.945312 C 225.917969 71.121094 232.183594 71.121094 232.183594 66.945312 "/>
<path style=" stroke:none;fill-rule:evenodd;fill:rgb(45.882353%,94.901961%,40.392157%);fill-opacity:1;" d="M 232.183594 228.523438 C 232.183594 224.34375 225.917969 224.34375 225.917969 228.523438 C 225.917969 232.699219 232.183594 232.699219 232.183594 228.523438 "/>
<path style=" stroke:none;fill-rule:evenodd;fill:rgb(75.686275%,0%,87.843137%);fill-opacity:1;" d="M 232.171875 228.519531 C 232.171875 224.363281 225.933594 224.363281 225.933594 228.519531 C 225.933594 232.679688 232.171875 232.679688 232.171875 228.519531 "/>
<path style=" stroke:none;fill-rule:evenodd;fill:rgb(75.686275%,0%,87.843137%);fill-opacity:1;" d="M 232.171875 66.945312 C 232.171875 62.789062 225.933594 62.789062 225.933594 66.945312 C 225.933594 71.105469 232.171875 71.105469 232.171875 66.945312 "/>
<path style=" stroke:none;fill-rule:evenodd;fill:rgb(75.686275%,0%,87.843137%);fill-opacity:1;" d="M 70.597656 66.945312 C 70.597656 62.789062 64.359375 62.789062 64.359375 66.945312 C 64.359375 71.105469 70.597656 71.105469 70.597656 66.945312 "/>
<path style=" stroke:none;fill-rule:evenodd;fill:rgb(75.686275%,0%,87.843137%);fill-opacity:1;" d="M 70.597656 174.664062 C 70.597656 170.503906 64.359375 170.503906 64.359375 174.664062 C 64.359375 178.820312 70.597656 178.820312 70.597656 174.664062 "/>
<path style="fill:none;stroke-width:0.00393701;stroke-linecap:round;stroke-linejoin:miter;stroke:rgb(100%,49.803922%,45.098039%);stroke-opacity:1;stroke-miterlimit:10;" d="M 4.724385 -4.842541 L 5.2756 -4.842541 " transform="matrix(72,0,0,-72,-211.733859,-113.053543)"/>
<path style="fill:none;stroke-width:0.00393701;stroke-linecap:round;stroke-linejoin:miter;stroke:rgb(100%,49.803922%,45.098039%);stroke-opacity:1;stroke-miterlimit:10;" d="M 5.2756 -4.842541 L 5.2756 -5.393702 " transform="matrix(72,0,0,-72,-211.733859,-113.053543)"/>
<path style="fill:none;stroke-width:0.00393701;stroke-linecap:round;stroke-linejoin:miter;stroke:rgb(100%,49.803922%,45.098039%);stroke-opacity:1;stroke-miterlimit:10;" d="M 5.2756 -5.393702 L 4.724385 -5.393702 " transform="matrix(72,0,0,-72,-211.733859,-113.053543)"/>
<path style="fill:none;stroke-width:0.00393701;stroke-linecap:round;stroke-linejoin:miter;stroke:rgb(100%,49.803922%,45.098039%);stroke-opacity:1;stroke-miterlimit:10;" d="M 4.724385 -5.393702 L 4.724385 -4.842541 " transform="matrix(72,0,0,-72,-211.733859,-113.053543)"/>
<path style="fill:none;stroke-width:0.00393701;stroke-linecap:round;stroke-linejoin:miter;stroke:rgb(100%,49.803922%,45.098039%);stroke-opacity:1;stroke-miterlimit:10;" d="M 5.472432 -4.842541 L 6.023647 -4.842541 " transform="matrix(72,0,0,-72,-211.733859,-113.053543)"/>
<path style="fill:none;stroke-width:0.00393701;stroke-linecap:round;stroke-linejoin:miter;stroke:rgb(100%,49.803922%,45.098039%);stroke-opacity:1;stroke-miterlimit:10;" d="M 6.023647 -4.842541 L 6.023647 -5.393702 " transform="matrix(72,0,0,-72,-211.733859,-113.053543)"/>
<path style="fill:none;stroke-width:0.00393701;stroke-linecap:round;stroke-linejoin:miter;stroke:rgb(100%,49.803922%,45.098039%);stroke-opacity:1;stroke-miterlimit:10;" d="M 6.023647 -5.393702 L 5.472432 -5.393702 " transform="matrix(72,0,0,-72,-211.733859,-113.053543)"/>
<path style="fill:none;stroke-width:0.00393701;stroke-linecap:round;stroke-linejoin:miter;stroke:rgb(100%,49.803922%,45.098039%);stroke-opacity:1;stroke-miterlimit:10;" d="M 5.472432 -5.393702 L 5.472432 -4.842541 " transform="matrix(72,0,0,-72,-211.733859,-113.053543)"/>
<path style="fill:none;stroke-width:0.00393701;stroke-linecap:round;stroke-linejoin:miter;stroke:rgb(100%,49.803922%,45.098039%);stroke-opacity:1;stroke-miterlimit:10;" d="M 6.220479 -4.842541 L 6.77164 -4.842541 " transform="matrix(72,0,0,-72,-211.733859,-113.053543)"/>
<path style="fill:none;stroke-width:0.00393701;stroke-linecap:round;stroke-linejoin:miter;stroke:rgb(100%,49.803922%,45.098039%);stroke-opacity:1;stroke-miterlimit:10;" d="M 6.77164 -4.842541 L 6.77164 -5.393702 " transform="matrix(72,0,0,-72,-211.733859,-113.053543)"/>
<path style="fill:none;stroke-width:0.00393701;stroke-linecap:round;stroke-linejoin:miter;stroke:rgb(100%,49.803922%,45.098039%);stroke-opacity:1;stroke-miterlimit:10;" d="M 6.77164 -5.393702 L 6.220479 -5.393702 " transform="matrix(72,0,0,-72,-211.733859,-113.053543)"/>
<path style="fill:none;stroke-width:0.00393701;stroke-linecap:round;stroke-linejoin:miter;stroke:rgb(100%,49.803922%,45.098039%);stroke-opacity:1;stroke-miterlimit:10;" d="M 6.220479 -5.393702 L 6.220479 -4.842541 " transform="matrix(72,0,0,-72,-211.733859,-113.053543)"/>
<path style="fill:none;stroke-width:0.00393701;stroke-linecap:round;stroke-linejoin:miter;stroke:rgb(100%,49.803922%,45.098039%);stroke-opacity:1;stroke-miterlimit:10;" d="M 3.228346 -3.346447 L 3.779507 -3.346447 " transform="matrix(72,0,0,-72,-211.733859,-113.053543)"/>
<path style="fill:none;stroke-width:0.00393701;stroke-linecap:round;stroke-linejoin:miter;stroke:rgb(100%,49.803922%,45.098039%);stroke-opacity:1;stroke-miterlimit:10;" d="M 3.779507 -3.346447 L 3.779507 -3.897662 " transform="matrix(72,0,0,-72,-211.733859,-113.053543)"/>
<path style="fill:none;stroke-width:0.00393701;stroke-linecap:round;stroke-linejoin:miter;stroke:rgb(100%,49.803922%,45.098039%);stroke-opacity:1;stroke-miterlimit:10;" d="M 3.779507 -3.897662 L 3.228346 -3.897662 " transform="matrix(72,0,0,-72,-211.733859,-113.053543)"/>
<path style="fill:none;stroke-width:0.00393701;stroke-linecap:round;stroke-linejoin:miter;stroke:rgb(100%,49.803922%,45.098039%);stroke-opacity:1;stroke-miterlimit:10;" d="M 3.228346 -3.897662 L 3.228346 -3.346447 " transform="matrix(72,0,0,-72,-211.733859,-113.053543)"/>
<path style="fill:none;stroke-width:0.00393701;stroke-linecap:round;stroke-linejoin:miter;stroke:rgb(100%,49.803922%,45.098039%);stroke-opacity:1;stroke-miterlimit:10;" d="M 3.976393 -3.346447 L 4.527554 -3.346447 " transform="matrix(72,0,0,-72,-211.733859,-113.053543)"/>
<path style="fill:none;stroke-width:0.00393701;stroke-linecap:round;stroke-linejoin:miter;stroke:rgb(100%,49.803922%,45.098039%);stroke-opacity:1;stroke-miterlimit:10;" d="M 4.527554 -3.346447 L 4.527554 -3.897662 " transform="matrix(72,0,0,-72,-211.733859,-113.053543)"/>
<path style="fill:none;stroke-width:0.00393701;stroke-linecap:round;stroke-linejoin:miter;stroke:rgb(100%,49.803922%,45.098039%);stroke-opacity:1;stroke-miterlimit:10;" d="M 4.527554 -3.897662 L 3.976393 -3.897662 " transform="matrix(72,0,0,-72,-211.733859,-113.053543)"/>
<path style="fill:none;stroke-width:0.00393701;stroke-linecap:round;stroke-linejoin:miter;stroke:rgb(100%,49.803922%,45.098039%);stroke-opacity:1;stroke-miterlimit:10;" d="M 3.976393 -3.897662 L 3.976393 -3.346447 " transform="matrix(72,0,0,-72,-211.733859,-113.053543)"/>
<path style="fill:none;stroke-width:0.00393701;stroke-linecap:round;stroke-linejoin:miter;stroke:rgb(100%,49.803922%,45.098039%);stroke-opacity:1;stroke-miterlimit:10;" d="M 4.724385 -3.346447 L 5.2756 -3.346447 " transform="matrix(72,0,0,-72,-211.733859,-113.053543)"/>
<path style="fill:none;stroke-width:0.00393701;stroke-linecap:round;stroke-linejoin:miter;stroke:rgb(100%,49.803922%,45.098039%);stroke-opacity:1;stroke-miterlimit:10;" d="M 5.2756 -3.346447 L 5.2756 -3.897662 " transform="matrix(72,0,0,-72,-211.733859,-113.053543)"/>
<path style="fill:none;stroke-width:0.00393701;stroke-linecap:round;stroke-linejoin:miter;stroke:rgb(100%,49.803922%,45.098039%);stroke-opacity:1;stroke-miterlimit:10;" d="M 5.2756 -3.897662 L 4.724385 -3.897662 " transform="matrix(72,0,0,-72,-211.733859,-113.053543)"/>
<path style="fill:none;stroke-width:0.00393701;stroke-linecap:round;stroke-linejoin:miter;stroke:rgb(100%,49.803922%,45.098039%);stroke-opacity:1;stroke-miterlimit:10;" d="M 4.724385 -3.897662 L 4.724385 -3.346447 " transform="matrix(72,0,0,-72,-211.733859,-113.053543)"/>
<path style="fill:none;stroke-width:0.00393701;stroke-linecap:round;stroke-linejoin:miter;stroke:rgb(100%,49.803922%,45.098039%);stroke-opacity:1;stroke-miterlimit:10;" d="M 5.472432 -3.346447 L 6.023647 -3.346447 " transform="matrix(72,0,0,-72,-211.733859,-113.053543)"/>
<path style="fill:none;stroke-width:0.00393701;stroke-linecap:round;stroke-linejoin:miter;stroke:rgb(100%,49.803922%,45.098039%);stroke-opacity:1;stroke-miterlimit:10;" d="M 6.023647 -3.346447 L 6.023647 -3.897662 " transform="matrix(72,0,0,-72,-211.733859,-113.053543)"/>
<path style="fill:none;stroke-width:0.00393701;stroke-linecap:round;stroke-linejoin:miter;stroke:rgb(100%,49.803922%,45.098039%);stroke-opacity:1;stroke-miterlimit:10;" d="M 6.023647 -3.897662 L 5.472432 -3.897662 " transform="matrix(72,0,0,-72,-211.733859,-113.053543)"/>
<path style="fill:none;stroke-width:0.00393701;stroke-linecap:round;stroke-linejoin:miter;stroke:rgb(100%,49.803922%,45.098039%);stroke-opacity:1;stroke-miterlimit:10;" d="M 5.472432 -3.897662 L 5.472432 -3.346447 " transform="matrix(72,0,0,-72,-211.733859,-113.053543)"/>
<path style="fill:none;stroke-width:0.00393701;stroke-linecap:round;stroke-linejoin:miter;stroke:rgb(100%,49.803922%,45.098039%);stroke-opacity:1;stroke-miterlimit:10;" d="M 6.220479 -3.346447 L 6.77164 -3.346447 " transform="matrix(72,0,0,-72,-211.733859,-113.053543)"/>
<path style="fill:none;stroke-width:0.00393701;stroke-linecap:round;stroke-linejoin:miter;stroke:rgb(100%,49.803922%,45.098039%);stroke-opacity:1;stroke-miterlimit:10;" d="M 6.77164 -3.346447 L 6.77164 -3.897662 " transform="matrix(72,0,0,-72,-211.733859,-113.053543)"/>
<path style="fill:none;stroke-width:0.00393701;stroke-linecap:round;stroke-linejoin:miter;stroke:rgb(100%,49.803922%,45.098039%);stroke-opacity:1;stroke-miterlimit:10;" d="M 6.77164 -3.897662 L 6.220479 -3.897662 " transform="matrix(72,0,0,-72,-211.733859,-113.053543)"/>
<path style="fill:none;stroke-width:0.00393701;stroke-linecap:round;stroke-linejoin:miter;stroke:rgb(100%,49.803922%,45.098039%);stroke-opacity:1;stroke-miterlimit:10;" d="M 6.220479 -3.897662 L 6.220479 -3.346447 " transform="matrix(72,0,0,-72,-211.733859,-113.053543)"/>
<path style="fill:none;stroke-width:0.00393701;stroke-linecap:round;stroke-linejoin:miter;stroke:rgb(100%,49.803922%,45.098039%);stroke-opacity:1;stroke-miterlimit:10;" d="M 6.220479 -4.645655 L 6.220479 -4.094494 " transform="matrix(72,0,0,-72,-211.733859,-113.053543)"/>
<path style="fill:none;stroke-width:0.00393701;stroke-linecap:round;stroke-linejoin:miter;stroke:rgb(100%,49.803922%,45.098039%);stroke-opacity:1;stroke-miterlimit:10;" d="M 6.77164 -4.645655 L 6.220479 -4.645655 " transform="matrix(72,0,0,-72,-211.733859,-113.053543)"/>
<path style="fill:none;stroke-width:0.00393701;stroke-linecap:round;stroke-linejoin:miter;stroke:rgb(100%,49.803922%,45.098039%);stroke-opacity:1;stroke-miterlimit:10;" d="M 6.77164 -4.094494 L 6.77164 -4.645655 " transform="matrix(72,0,0,-72,-211.733859,-113.053543)"/>
<path style="fill:none;stroke-width:0.00393701;stroke-linecap:round;stroke-linejoin:miter;stroke:rgb(100%,49.803922%,45.098039%);stroke-opacity:1;stroke-miterlimit:10;" d="M 6.220479 -4.094494 L 6.77164 -4.094494 " transform="matrix(72,0,0,-72,-211.733859,-113.053543)"/>
<path style="fill:none;stroke-width:0.00393701;stroke-linecap:round;stroke-linejoin:miter;stroke:rgb(100%,49.803922%,45.098039%);stroke-opacity:1;stroke-miterlimit:10;" d="M 5.472432 -4.645655 L 5.472432 -4.094494 " transform="matrix(72,0,0,-72,-211.733859,-113.053543)"/>
<path style="fill:none;stroke-width:0.00393701;stroke-linecap:round;stroke-linejoin:miter;stroke:rgb(100%,49.803922%,45.098039%);stroke-opacity:1;stroke-miterlimit:10;" d="M 6.023647 -4.645655 L 5.472432 -4.645655 " transform="matrix(72,0,0,-72,-211.733859,-113.053543)"/>
<path style="fill:none;stroke-width:0.00393701;stroke-linecap:round;stroke-linejoin:miter;stroke:rgb(100%,49.803922%,45.098039%);stroke-opacity:1;stroke-miterlimit:10;" d="M 6.023647 -4.094494 L 6.023647 -4.645655 " transform="matrix(72,0,0,-72,-211.733859,-113.053543)"/>
<path style="fill:none;stroke-width:0.00393701;stroke-linecap:round;stroke-linejoin:miter;stroke:rgb(100%,49.803922%,45.098039%);stroke-opacity:1;stroke-miterlimit:10;" d="M 5.472432 -4.094494 L 6.023647 -4.094494 " transform="matrix(72,0,0,-72,-211.733859,-113.053543)"/>
<path style="fill:none;stroke-width:0.00393701;stroke-linecap:round;stroke-linejoin:miter;stroke:rgb(100%,49.803922%,45.098039%);stroke-opacity:1;stroke-miterlimit:10;" d="M 4.724385 -4.645655 L 4.724385 -4.094494 " transform="matrix(72,0,0,-72,-211.733859,-113.053543)"/>
<path style="fill:none;stroke-width:0.00393701;stroke-linecap:round;stroke-linejoin:miter;stroke:rgb(100%,49.803922%,45.098039%);stroke-opacity:1;stroke-miterlimit:10;" d="M 5.2756 -4.645655 L 4.724385 -4.645655 " transform="matrix(72,0,0,-72,-211.733859,-113.053543)"/>
<path style="fill:none;stroke-width:0.00393701;stroke-linecap:round;stroke-linejoin:miter;stroke:rgb(100%,49.803922%,45.098039%);stroke-opacity:1;stroke-miterlimit:10;" d="M 5.2756 -4.094494 L 5.2756 -4.645655 " transform="matrix(72,0,0,-72,-211.733859,-113.053543)"/>
<path style="fill:none;stroke-width:0.00393701;stroke-linecap:round;stroke-linejoin:miter;stroke:rgb(100%,49.803922%,45.098039%);stroke-opacity:1;stroke-miterlimit:10;" d="M 4.724385 -4.094494 L 5.2756 -4.094494 " transform="matrix(72,0,0,-72,-211.733859,-113.053543)"/>
<path style="fill:none;stroke-width:0.00393701;stroke-linecap:round;stroke-linejoin:miter;stroke:rgb(100%,49.803922%,45.098039%);stroke-opacity:1;stroke-miterlimit:10;" d="M 3.976393 -4.645655 L 3.976393 -4.094494 " transform="matrix(72,0,0,-72,-211.733859,-113.053543)"/>
<path style="fill:none;stroke-width:0.00393701;stroke-linecap:round;stroke-linejoin:miter;stroke:rgb(100%,49.803922%,45.098039%);stroke-opacity:1;stroke-miterlimit:10;" d="M 4.527554 -4.645655 L 3.976393 -4.645655 " transform="matrix(72,0,0,-72,-211.733859,-113.053543)"/>
<path style="fill:none;stroke-width:0.00393701;stroke-linecap:round;stroke-linejoin:miter;stroke:rgb(100%,49.803922%,45.098039%);stroke-opacity:1;stroke-miterlimit:10;" d="M 4.527554 -4.094494 L 4.527554 -4.645655 " transform="matrix(72,0,0,-72,-211.733859,-113.053543)"/>
<path style="fill:none;stroke-width:0.00393701;stroke-linecap:round;stroke-linejoin:miter;stroke:rgb(100%,49.803922%,45.098039%);stroke-opacity:1;stroke-miterlimit:10;" d="M 3.976393 -4.094494 L 4.527554 -4.094494 " transform="matrix(72,0,0,-72,-211.733859,-113.053543)"/>
<path style="fill:none;stroke-width:0.00393701;stroke-linecap:round;stroke-linejoin:miter;stroke:rgb(100%,49.803922%,45.098039%);stroke-opacity:1;stroke-miterlimit:10;" d="M 3.228346 -4.645655 L 3.228346 -4.094494 " transform="matrix(72,0,0,-72,-211.733859,-113.053543)"/>
<path style="fill:none;stroke-width:0.00393701;stroke-linecap:round;stroke-linejoin:miter;stroke:rgb(100%,49.803922%,45.098039%);stroke-opacity:1;stroke-miterlimit:10;" d="M 3.779507 -4.645655 L 3.228346 -4.645655 " transform="matrix(72,0,0,-72,-211.733859,-113.053543)"/>
<path style="fill:none;stroke-width:0.00393701;stroke-linecap:round;stroke-linejoin:miter;stroke:rgb(100%,49.803922%,45.098039%);stroke-opacity:1;stroke-miterlimit:10;" d="M 3.779507 -4.094494 L 3.779507 -4.645655 " transform="matrix(72,0,0,-72,-211.733859,-113.053543)"/>
<path style="fill:none;stroke-width:0.00393701;stroke-linecap:round;stroke-linejoin:miter;stroke:rgb(100%,49.803922%,45.098039%);stroke-opacity:1;stroke-miterlimit:10;" d="M 3.228346 -4.094494 L 3.779507 -4.094494 " transform="matrix(72,0,0,-72,-211.733859,-113.053543)"/>
<path style="fill:none;stroke-width:0.00393701;stroke-linecap:round;stroke-linejoin:miter;stroke:rgb(100%,49.803922%,45.098039%);stroke-opacity:1;stroke-miterlimit:10;" d="M 3.228346 -2.5984 L 3.779507 -2.5984 " transform="matrix(72,0,0,-72,-211.733859,-113.053543)"/>
<path style="fill:none;stroke-width:0.00393701;stroke-linecap:round;stroke-linejoin:miter;stroke:rgb(100%,49.803922%,45.098039%);stroke-opacity:1;stroke-miterlimit:10;" d="M 3.779507 -2.5984 L 3.779507 -3.149615 " transform="matrix(72,0,0,-72,-211.733859,-113.053543)"/>
<path style="fill:none;stroke-width:0.00393701;stroke-linecap:round;stroke-linejoin:miter;stroke:rgb(100%,49.803922%,45.098039%);stroke-opacity:1;stroke-miterlimit:10;" d="M 3.779507 -3.149615 L 3.228346 -3.149615 " transform="matrix(72,0,0,-72,-211.733859,-113.053543)"/>
<path style="fill:none;stroke-width:0.00393701;stroke-linecap:round;stroke-linejoin:miter;stroke:rgb(100%,49.803922%,45.098039%);stroke-opacity:1;stroke-miterlimit:10;" d="M 3.228346 -3.149615 L 3.228346 -2.5984 " transform="matrix(72,0,0,-72,-211.733859,-113.053543)"/>
<path style="fill:none;stroke-width:0.00393701;stroke-linecap:round;stroke-linejoin:miter;stroke:rgb(100%,49.803922%,45.098039%);stroke-opacity:1;stroke-miterlimit:10;" d="M 3.976393 -2.5984 L 4.527554 -2.5984 " transform="matrix(72,0,0,-72,-211.733859,-113.053543)"/>
<path style="fill:none;stroke-width:0.00393701;stroke-linecap:round;stroke-linejoin:miter;stroke:rgb(100%,49.803922%,45.098039%);stroke-opacity:1;stroke-miterlimit:10;" d="M 4.527554 -2.5984 L 4.527554 -3.149615 " transform="matrix(72,0,0,-72,-211.733859,-113.053543)"/>
<path style="fill:none;stroke-width:0.00393701;stroke-linecap:round;stroke-linejoin:miter;stroke:rgb(100%,49.803922%,45.098039%);stroke-opacity:1;stroke-miterlimit:10;" d="M 4.527554 -3.149615 L 3.976393 -3.149615 " transform="matrix(72,0,0,-72,-211.733859,-113.053543)"/>
<path style="fill:none;stroke-width:0.00393701;stroke-linecap:round;stroke-linejoin:miter;stroke:rgb(100%,49.803922%,45.098039%);stroke-opacity:1;stroke-miterlimit:10;" d="M 3.976393 -3.149615 L 3.976393 -2.5984 " transform="matrix(72,0,0,-72,-211.733859,-113.053543)"/>
<path style="fill:none;stroke-width:0.00393701;stroke-linecap:round;stroke-linejoin:miter;stroke:rgb(100%,49.803922%,45.098039%);stroke-opacity:1;stroke-miterlimit:10;" d="M 4.724385 -2.5984 L 5.2756 -2.5984 " transform="matrix(72,0,0,-72,-211.733859,-113.053543)"/>
<path style="fill:none;stroke-width:0.00393701;stroke-linecap:round;stroke-linejoin:miter;stroke:rgb(100%,49.803922%,45.098039%);stroke-opacity:1;stroke-miterlimit:10;" d="M 5.2756 -2.5984 L 5.2756 -3.149615 " transform="matrix(72,0,0,-72,-211.733859,-113.053543)"/>
<path style="fill:none;stroke-width:0.00393701;stroke-linecap:round;stroke-linejoin:miter;stroke:rgb(100%,49.803922%,45.098039%);stroke-opacity:1;stroke-miterlimit:10;" d="M 5.2756 -3.149615 L 4.724385 -3.149615 " transform="matrix(72,0,0,-72,-211.733859,-113.053543)"/>
<path style="fill:none;stroke-width:0.00393701;stroke-linecap:round;stroke-linejoin:miter;stroke:rgb(100%,49.803922%,45.098039%);stroke-opacity:1;stroke-miterlimit:10;" d="M 4.724385 -3.149615 L 4.724385 -2.5984 " transform="matrix(72,0,0,-72,-211.733859,-113.053543)"/>
<path style="fill:none;stroke-width:0.00393701;stroke-linecap:round;stroke-linejoin:miter;stroke:rgb(100%,49.803922%,45.098039%);stroke-opacity:1;stroke-miterlimit:10;" d="M 5.472432 -2.5984 L 6.023647 -2.5984 " transform="matrix(72,0,0,-72,-211.733859,-113.053543)"/>
<path style="fill:none;stroke-width:0.00393701;stroke-linecap:round;stroke-linejoin:miter;stroke:rgb(100%,49.803922%,45.098039%);stroke-opacity:1;stroke-miterlimit:10;" d="M 6.023647 -2.5984 L 6.023647 -3.149615 " transform="matrix(72,0,0,-72,-211.733859,-113.053543)"/>
<path style="fill:none;stroke-width:0.00393701;stroke-linecap:round;stroke-linejoin:miter;stroke:rgb(100%,49.803922%,45.098039%);stroke-opacity:1;stroke-miterlimit:10;" d="M 6.023647 -3.149615 L 5.472432 -3.149615 " transform="matrix(72,0,0,-72,-211.733859,-113.053543)"/>
<path style="fill:none;stroke-width:0.00393701;stroke-linecap:round;stroke-linejoin:miter;stroke:rgb(100%,49.803922%,45.098039%);stroke-opacity:1;stroke-miterlimit:10;" d="M 5.472432 -3.149615 L 5.472432 -2.5984 " transform="matrix(72,0,0,-72,-211.733859,-113.053543)"/>
<path style="fill:none;stroke-width:0.00393701;stroke-linecap:round;stroke-linejoin:miter;stroke:rgb(100%,49.803922%,45.098039%);stroke-opacity:1;stroke-miterlimit:10;" d="M 6.220479 -2.5984 L 6.77164 -2.5984 " transform="matrix(72,0,0,-72,-211.733859,-113.053543)"/>
<path style="fill:none;stroke-width:0.00393701;stroke-linecap:round;stroke-linejoin:miter;stroke:rgb(100%,49.803922%,45.098039%);stroke-opacity:1;stroke-miterlimit:10;" d="M 6.77164 -2.5984 L 6.77164 -3.149615 " transform="matrix(72,0,0,-72,-211.733859,-113.053543)"/>
<path style="fill:none;stroke-width:0.00393701;stroke-linecap:round;stroke-linejoin:miter;stroke:rgb(100%,49.803922%,45.098039%);stroke-opacity:1;stroke-miterlimit:10;" d="M 6.77164 -3.149615 L 6.220479 -3.149615 " transform="matrix(72,0,0,-72,-211.733859,-113.053543)"/>
<path style="fill:none;stroke-width:0.00393701;stroke-linecap:round;stroke-linejoin:miter;stroke:rgb(100%,49.803922%,45.098039%);stroke-opacity:1;stroke-miterlimit:10;" d="M 6.220479 -3.149615 L 6.220479 -2.5984 " transform="matrix(72,0,0,-72,-211.733859,-113.053543)"/>
<path style="fill:none;stroke-width:0.00393701;stroke-linecap:round;stroke-linejoin:miter;stroke:rgb(100%,49.803922%,45.098039%);stroke-opacity:1;stroke-miterlimit:10;" d="M 6.220479 -2.401568 L 6.220479 -1.850407 " transform="matrix(72,0,0,-72,-211.733859,-113.053543)"/>
<path style="fill:none;stroke-width:0.00393701;stroke-linecap:round;stroke-linejoin:miter;stroke:rgb(100%,49.803922%,45.098039%);stroke-opacity:1;stroke-miterlimit:10;" d="M 6.77164 -2.401568 L 6.220479 -2.401568 " transform="matrix(72,0,0,-72,-211.733859,-113.053543)"/>
<path style="fill:none;stroke-width:0.00393701;stroke-linecap:round;stroke-linejoin:miter;stroke:rgb(100%,49.803922%,45.098039%);stroke-opacity:1;stroke-miterlimit:10;" d="M 6.77164 -1.850407 L 6.77164 -2.401568 " transform="matrix(72,0,0,-72,-211.733859,-113.053543)"/>
<path style="fill:none;stroke-width:0.00393701;stroke-linecap:round;stroke-linejoin:miter;stroke:rgb(100%,49.803922%,45.098039%);stroke-opacity:1;stroke-miterlimit:10;" d="M 6.220479 -1.850407 L 6.77164 -1.850407 " transform="matrix(72,0,0,-72,-211.733859,-113.053543)"/>
<path style="fill:none;stroke-width:0.00393701;stroke-linecap:round;stroke-linejoin:miter;stroke:rgb(100%,49.803922%,45.098039%);stroke-opacity:1;stroke-miterlimit:10;" d="M 5.472432 -2.401568 L 5.472432 -1.850407 " transform="matrix(72,0,0,-72,-211.733859,-113.053543)"/>
<path style="fill:none;stroke-width:0.00393701;stroke-linecap:round;stroke-linejoin:miter;stroke:rgb(100%,49.803922%,45.098039%);stroke-opacity:1;stroke-miterlimit:10;" d="M 6.023647 -2.401568 L 5.472432 -2.401568 " transform="matrix(72,0,0,-72,-211.733859,-113.053543)"/>
<path style="fill:none;stroke-width:0.00393701;stroke-linecap:round;stroke-linejoin:miter;stroke:rgb(100%,49.803922%,45.098039%);stroke-opacity:1;stroke-miterlimit:10;" d="M 6.023647 -1.850407 L 6.023647 -2.401568 " transform="matrix(72,0,0,-72,-211.733859,-113.053543)"/>
<path style="fill:none;stroke-width:0.00393701;stroke-linecap:round;stroke-linejoin:miter;stroke:rgb(100%,49.803922%,45.098039%);stroke-opacity:1;stroke-miterlimit:10;" d="M 5.472432 -1.850407 L 6.023647 -1.850407 " transform="matrix(72,0,0,-72,-211.733859,-113.053543)"/>
<path style="fill:none;stroke-width:0.00393701;stroke-linecap:round;stroke-linejoin:miter;stroke:rgb(100%,49.803922%,45.098039%);stroke-opacity:1;stroke-miterlimit:10;" d="M 4.724385 -2.401568 L 4.724385 -1.850407 " transform="matrix(72,0,0,-72,-211.733859,-113.053543)"/>
<path style="fill:none;stroke-width:0.00393701;stroke-linecap:round;stroke-linejoin:miter;stroke:rgb(100%,49.803922%,45.098039%);stroke-opacity:1;stroke-miterlimit:10;" d="M 5.2756 -2.401568 L 4.724385 -2.401568 " transform="matrix(72,0,0,-72,-211.733859,-113.053543)"/>
<path style="fill:none;stroke-width:0.00393701;stroke-linecap:round;stroke-linejoin:miter;stroke:rgb(100%,49.803922%,45.098039%);stroke-opacity:1;stroke-miterlimit:10;" d="M 5.2756 -1.850407 L 5.2756 -2.401568 " transform="matrix(72,0,0,-72,-211.733859,-113.053543)"/>
<path style="fill:none;stroke-width:0.00393701;stroke-linecap:round;stroke-linejoin:miter;stroke:rgb(100%,49.803922%,45.098039%);stroke-opacity:1;stroke-miterlimit:10;" d="M 4.724385 -1.850407 L 5.2756 -1.850407 " transform="matrix(72,0,0,-72,-211.733859,-113.053543)"/>
<path style="fill:none;stroke-width:0.00393701;stroke-linecap:round;stroke-linejoin:miter;stroke:rgb(100%,49.803922%,45.098039%);stroke-opacity:1;stroke-miterlimit:10;" d="M 3.976393 -2.401568 L 3.976393 -1.850407 " transform="matrix(72,0,0,-72,-211.733859,-113.053543)"/>
<path style="fill:none;stroke-width:0.00393701;stroke-linecap:round;stroke-linejoin:miter;stroke:rgb(100%,49.803922%,45.098039%);stroke-opacity:1;stroke-miterlimit:10;" d="M 4.527554 -2.401568 L 3.976393 -2.401568 " transform="matrix(72,0,0,-72,-211.733859,-113.053543)"/>
<path style="fill:none;stroke-width:0.00393701;stroke-linecap:round;stroke-linejoin:miter;stroke:rgb(100%,49.803922%,45.098039%);stroke-opacity:1;stroke-miterlimit:10;" d="M 4.527554 -1.850407 L 4.527554 -2.401568 " transform="matrix(72,0,0,-72,-211.733859,-113.053543)"/>
<path style="fill:none;stroke-width:0.00393701;stroke-linecap:round;stroke-linejoin:miter;stroke:rgb(100%,49.803922%,45.098039%);stroke-opacity:1;stroke-miterlimit:10;" d="M 3.976393 -1.850407 L 4.527554 -1.850407 " transform="matrix(72,0,0,-72,-211.733859,-113.053543)"/>
<path style="fill:none;stroke-width:0.00393701;stroke-linecap:round;stroke-linejoin:miter;stroke:rgb(100%,49.803922%,45.098039%);stroke-opacity:1;stroke-miterlimit:10;" d="M 3.228346 -2.401568 L 3.228346 -1.850407 " transform="matrix(72,0,0,-72,-211.733859,-113.053543)"/>
<path style="fill:none;stroke-width:0.00393701;stroke-linecap:round;stroke-linejoin:miter;stroke:rgb(100%,49.803922%,45.098039%);stroke-opacity:1;stroke-miterlimit:10;" d="M 3.779507 -2.401568 L 3.228346 -2.401568 " transform="matrix(72,0,0,-72,-211.733859,-113.053543)"/>
<path style="fill:none;stroke-width:0.00393701;stroke-linecap:round;stroke-linejoin:miter;stroke:rgb(100%,49.803922%,45.098039%);stroke-opacity:1;stroke-miterlimit:10;" d="M 3.779507 -1.850407 L 3.779507 -2.401568 " transform="matrix(72,0,0,-72,-211.733859,-113.053543)"/>
<path style="fill:none;stroke-width:0.00393701;stroke-linecap:round;stroke-linejoin:miter;stroke:rgb(100%,49.803922%,45.098039%);stroke-opacity:1;stroke-miterlimit:10;" d="M 3.228346 -1.850407 L 3.779507 -1.850407 " transform="matrix(72,0,0,-72,-211.733859,-113.053543)"/>
<path style="fill:none;stroke-width:0.00393701;stroke-linecap:round;stroke-linejoin:miter;stroke:rgb(100%,49.803922%,45.098039%);stroke-opacity:1;stroke-miterlimit:10;" d="M 4.625969 -4.74407 L 4.625969 -5.492117 " transform="matrix(72,0,0,-72,-211.733859,-113.053543)"/>
<path style="fill:none;stroke-width:0.00393701;stroke-linecap:round;stroke-linejoin:miter;stroke:rgb(100%,49.803922%,45.098039%);stroke-opacity:1;stroke-miterlimit:10;" d="M 3.12993 -4.74407 L 4.625969 -4.74407 " transform="matrix(72,0,0,-72,-211.733859,-113.053543)"/>
<path style="fill:none;stroke-width:0.00393701;stroke-linecap:round;stroke-linejoin:miter;stroke:rgb(100%,49.803922%,45.098039%);stroke-opacity:1;stroke-miterlimit:10;" d="M 4.625969 -5.492117 L 6.870056 -5.492117 " transform="matrix(72,0,0,-72,-211.733859,-113.053543)"/>
<path style="fill:none;stroke-width:0.00393701;stroke-linecap:round;stroke-linejoin:miter;stroke:rgb(100%,49.803922%,45.098039%);stroke-opacity:1;stroke-miterlimit:10;" d="M 6.870056 -1.751991 L 6.870056 -5.492117 " transform="matrix(72,0,0,-72,-211.733859,-113.053543)"/>
<path style="fill:none;stroke-width:0.00393701;stroke-linecap:round;stroke-linejoin:miter;stroke:rgb(100%,49.803922%,45.098039%);stroke-opacity:1;stroke-miterlimit:10;" d="M 3.12993 -1.751991 L 3.12993 -4.74407 " transform="matrix(72,0,0,-72,-211.733859,-113.053543)"/>
<path style="fill:none;stroke-width:0.00393701;stroke-linecap:round;stroke-linejoin:miter;stroke:rgb(100%,49.803922%,45.098039%);stroke-opacity:1;stroke-miterlimit:10;" d="M 3.12993 -1.751991 L 6.870056 -1.751991 " transform="matrix(72,0,0,-72,-211.733859,-113.053543)"/>
</g>
</svg>
